<svg xmlns="http://www.w3.org/2000/svg" width="35" height="32" viewBox="0 0 35 32">
  <g id="funnel" transform="translate(0 -2.917)">
    <g id="Group_354" data-name="Group 354" transform="translate(0 2.917)">
      <path id="Path_387" data-name="Path 387" d="M35,4.7a1.853,1.853,0,0,0-1.918-1.78H1.918a2.022,2.022,0,0,0-1.1.324A1.7,1.7,0,0,0,.35,5.721l11.3,14.911.032,10.848a3.274,3.274,0,0,0,.624,1.9,3.893,3.893,0,0,0,5.149.956l4.036-2.5A3.5,3.5,0,0,0,23.2,28.862L23.156,20.7,34.645,5.73A1.7,1.7,0,0,0,35,4.7ZM19.314,19.566l.047,9.312-3.845,2.38L15.481,19.5,5.612,6.477h23.75Z" transform="translate(0 -2.917)" fill="#fbf9f9"/>
    </g>
  </g>
</svg>
