<svg xmlns="http://www.w3.org/2000/svg" width="146.055" height="141" viewBox="0 0 146.055 141">
  <g id="logo_blou" data-name="logo blou" transform="translate(0 0.049)">
    <path id="Path_468" data-name="Path 468" d="M119.48,308.52" transform="translate(-62.603 -236.269)" fill="#144479"/>
    <path id="Path_469" data-name="Path 469" d="M63.836,367.758H54.358a59.885,59.885,0,0,0-3.143-6.484,5.13,5.13,0,0,0-3.171-2.526v9.01H39.53V339.38H50.661q6.108,0,9.088,2.128,3.171,2.263,3.171,7.158,0,6.385-4.966,8.407Q59.5,358.408,63.836,367.758ZM52.988,345.843a7.1,7.1,0,0,0-2.838-.426h-2.1v6.591h2.5a5.739,5.739,0,0,0,2.781-.5A2.9,2.9,0,0,0,54.5,348.8,2.963,2.963,0,0,0,52.988,345.843Z" transform="translate(-39.374 -245.235)" fill="#144479"/>
    <path id="Path_470" data-name="Path 470" d="M87.031,346.255v3.888H98.779V357H87.031v3.923h13.884v6.839H78.51V339.38h22.4v6.86Z" transform="translate(-50.699 -245.235)" fill="#144479"/>
    <path id="Path_471" data-name="Path 471" d="M126.784,339.4q6.108,0,9.088,2.128,3.171,2.263,3.171,7.158,0,6.165-4.441,8.641-3.491,1.937-10.429,1.937v8.513H115.66V339.4Zm-2.611,13.38q4.058,0,5.108-.511,1.341-.631,1.341-3.313c0-1.547-.5-2.582-1.518-3.086a6.719,6.719,0,0,0-2.838-.447H124.2Z" transform="translate(-61.493 -245.241)" fill="#144479"/>
    <path id="Path_472" data-name="Path 472" d="M162.158,361.6h-6.236l-1.461,6.158H144.23l9.705-28.378h9.932l10.11,28.378H163.712Zm-3.193-13-1.419,6.123h2.944Z" transform="translate(-69.794 -245.235)" fill="#144479"/>
    <path id="Path_473" data-name="Path 473" d="M197.743,367.758H189.23V339.38h8.513Z" transform="translate(-82.868 -245.235)" fill="#144479"/>
    <path id="Path_474" data-name="Path 474" d="M232.792,367.758h-9.478a60.393,60.393,0,0,0-3.129-6.484,5.13,5.13,0,0,0-3.171-2.526v9.01H208.5V339.38h11.131q6.108,0,9.088,2.128,3.171,2.263,3.171,7.158,0,6.385-4.931,8.407Q228.457,358.408,232.792,367.758Zm-10.848-21.915a7.1,7.1,0,0,0-2.838-.426h-2.057v6.591H219.5a5.739,5.739,0,0,0,2.781-.5,2.886,2.886,0,0,0,1.163-2.71A2.94,2.94,0,0,0,221.944,345.843Z" transform="translate(-88.467 -245.235)" fill="#144479"/>
    <path id="Path_475" data-name="Path 475" d="M48.376,399.657h-.887v-7.244a2.582,2.582,0,0,1-1.312.369H41.664a1.547,1.547,0,0,0-1.142.411.95.95,0,0,0-.255.312v6.151H39.38V385.78h.887v6.5a2.547,2.547,0,0,1,1.419-.383h4.427a1.7,1.7,0,0,0,1.178-.4,1.42,1.42,0,0,0,.22-.326V385.78H48.4Z" transform="translate(-39.33 -258.717)" fill="#144479"/>
    <path id="Path_476" data-name="Path 476" d="M62.569,399.657a4.661,4.661,0,0,1-2.228-.568,5.747,5.747,0,0,1-1.781-1.5,8.159,8.159,0,0,1,0-9.734,5.47,5.47,0,0,1,1.781-1.5,4.661,4.661,0,0,1,2.228-.568,4.59,4.59,0,0,1,2.235.568,5.264,5.264,0,0,1,1.781,1.5,8.1,8.1,0,0,1,0,9.734,5.513,5.513,0,0,1-1.795,1.5,4.59,4.59,0,0,1-2.221.568Zm2.384-12.188a3.945,3.945,0,0,0-2.384-.823,3.874,3.874,0,0,0-2.362.809,5.584,5.584,0,0,0-1.731,2.206,7.556,7.556,0,0,0,0,6.08,5.612,5.612,0,0,0,1.731,2.2,3.8,3.8,0,0,0,2.362.823,3.874,3.874,0,0,0,2.384-.823,5.612,5.612,0,0,0,1.731-2.2,7.478,7.478,0,0,0,0-6.08A5.583,5.583,0,0,0,64.953,387.468Z" transform="translate(-44.435 -258.716)" fill="#144479"/>
    <path id="Path_477" data-name="Path 477" d="M87.851,385.78h.915v13.877h-.915V388.263l-4.172,11.394H82.75l-4.122-11.394v11.394H77.72V385.78h.908l4.6,12.586Z" transform="translate(-50.47 -258.717)" fill="#144479"/>
    <path id="Path_478" data-name="Path 478" d="M106.405,399.657H98.14V385.78h8.265v.866H99.02V392a2.129,2.129,0,0,1,.709-.121h6.662v.887H99.743a.773.773,0,0,0-.589.184.49.49,0,0,0-.135.362v5.449h7.385Z" transform="translate(-56.403 -258.717)" fill="#144479"/>
    <path id="Path_479" data-name="Path 479" d="M121.546,399.663a7.8,7.8,0,0,1-3.058-.5,4.334,4.334,0,0,1-1.681-1.348l-.277-.333.709-.532.277.362a5.143,5.143,0,0,0,.539.56,2.994,2.994,0,0,0,.709.461,4.336,4.336,0,0,0,1.149.348,9.933,9.933,0,0,0,1.632.121,4.576,4.576,0,0,0,2.88-.823,2.682,2.682,0,0,0,1.043-2.221,2.022,2.022,0,0,0-.177-.873,2.072,2.072,0,0,0-.475-.66,3.277,3.277,0,0,0-.858-.482,9.589,9.589,0,0,0-1.078-.4c-.355-.106-.809-.227-1.376-.362a12.911,12.911,0,0,1-3.115-1.071,3.193,3.193,0,0,1-1.135-1.022,2.944,2.944,0,0,1-.433-1.61,3.058,3.058,0,0,1,1.107-2.483,5.676,5.676,0,0,1,3.611-.986,4.747,4.747,0,0,1,2.128.482,4.8,4.8,0,0,1,1.681,1.362l.277.348-.709.539-.3-.369a3.7,3.7,0,0,0-1.376-1.114,4.023,4.023,0,0,0-1.717-.39,4.782,4.782,0,0,0-3.029.78,2.263,2.263,0,0,0-.795,1.83,2.227,2.227,0,0,0,.184.922,1.987,1.987,0,0,0,.482.66,3.384,3.384,0,0,0,.866.525,8.511,8.511,0,0,0,1.093.4l1.369.369a12.834,12.834,0,0,1,3.1,1.036,3.505,3.505,0,0,1,1.121,1.022,2.774,2.774,0,0,1,.447,1.575,3.611,3.611,0,0,1-.277,1.5,3.107,3.107,0,0,1-.936,1.227A5.221,5.221,0,0,1,121.546,399.663Z" transform="translate(-61.746 -258.723)" fill="#144479"/>
    <path id="Path_480" data-name="Path 480" d="M141.835,399.657H133.57V385.78h8.265v.866h-7.378V392a2.129,2.129,0,0,1,.709-.121h6.655v.887h-6.655a.788.788,0,0,0-.589.184.49.49,0,0,0-.135.369v5.442h7.378Z" transform="translate(-66.697 -258.717)" fill="#144479"/>
    <path id="Path_481" data-name="Path 481" d="M159.392,399.657h-.972l-2.71-6.137a2.021,2.021,0,0,0-.27-.355,2.18,2.18,0,0,0-.248-.206l-.213-.113a.71.71,0,0,0-.135-.057h-3.391a.766.766,0,0,0-.6.206.518.518,0,0,0-.121.326v6.343h-.88V385.78h5.718a3.547,3.547,0,0,1,1.759.461,3.448,3.448,0,0,1,1.27,1.284,3.547,3.547,0,0,1,.461,1.781,3.49,3.49,0,0,1-2.838,3.405,3.746,3.746,0,0,1,.312.482Zm-8.662-7.641a2.548,2.548,0,0,1,.653-.121h4.186a2.5,2.5,0,0,0,1.837-.766,2.618,2.618,0,0,0,0-3.689,2.462,2.462,0,0,0-1.837-.78H150.73Z" transform="translate(-71.427 -258.716)" fill="#144479"/>
    <path id="Path_482" data-name="Path 482" d="M172.78,399.657l-4.86-13.877h.951l4.377,12.529L177.6,385.78h.951l-4.846,13.877Z" transform="translate(-76.677 -258.717)" fill="#144479"/>
    <path id="Path_483" data-name="Path 483" d="M187.53,399.657V385.78h.88v13.877Z" transform="translate(-82.374 -258.717)" fill="#144479"/>
    <path id="Path_484" data-name="Path 484" d="M199.033,399.657a4.626,4.626,0,0,1-2.228-.568,5.676,5.676,0,0,1-1.8-1.5,8.187,8.187,0,0,1,0-9.734,5.4,5.4,0,0,1,1.8-1.5,4.626,4.626,0,0,1,2.228-.568,4.732,4.732,0,0,1,2.575.759,6.072,6.072,0,0,1,1.923,1.986l.241.383-.759.468-.248-.383a5.377,5.377,0,0,0-1.66-1.724,3.831,3.831,0,0,0-2.072-.61,3.923,3.923,0,0,0-2.377.809,5.6,5.6,0,0,0-1.738,2.206,7.556,7.556,0,0,0,0,6.08,5.626,5.626,0,0,0,1.738,2.2,3.831,3.831,0,0,0,4.448.213,5.356,5.356,0,0,0,1.66-1.738l.248-.362.759.461-.241.383a6.073,6.073,0,0,1-1.923,1.987A4.732,4.732,0,0,1,199.033,399.657Z" transform="translate(-84.08 -258.716)" fill="#144479"/>
    <path id="Path_485" data-name="Path 485" d="M220.905,399.657H212.64V385.78h8.265v.866H213.52V392a2.129,2.129,0,0,1,.709-.121h6.655v.887h-6.655a.788.788,0,0,0-.589.184.5.5,0,0,0-.142.369v5.442h7.385Z" transform="translate(-89.67 -258.717)" fill="#144479"/>
    <path id="Path_486" data-name="Path 486" d="M233.946,399.66a7.8,7.8,0,0,1-3.058-.5,4.334,4.334,0,0,1-1.681-1.348l-.277-.333.709-.532.277.362a5.143,5.143,0,0,0,.539.56,2.994,2.994,0,0,0,.709.461,4.336,4.336,0,0,0,1.149.348,9.933,9.933,0,0,0,1.632.121,4.576,4.576,0,0,0,2.838-.8,2.682,2.682,0,0,0,1.043-2.221,1.922,1.922,0,0,0-.184-.873,2.057,2.057,0,0,0-.468-.66,3.277,3.277,0,0,0-.851-.511,9.594,9.594,0,0,0-1.078-.4c-.355-.106-.809-.227-1.376-.362a12.77,12.77,0,0,1-3.115-1.071,3.192,3.192,0,0,1-1.135-1.022,2.944,2.944,0,0,1-.433-1.61,3.058,3.058,0,0,1,1.107-2.483,5.676,5.676,0,0,1,3.611-.986,4.711,4.711,0,0,1,2.128.482,4.768,4.768,0,0,1,1.689,1.362L238,388l-.709.539-.3-.369a3.7,3.7,0,0,0-1.376-1.114,4.023,4.023,0,0,0-1.667-.4,4.782,4.782,0,0,0-3.029.78,2.263,2.263,0,0,0-.795,1.83,2.228,2.228,0,0,0,.184.922,1.986,1.986,0,0,0,.482.66,3.382,3.382,0,0,0,.866.525,8.512,8.512,0,0,0,1.093.4l1.369.369a12.834,12.834,0,0,1,3.1,1.036,3.5,3.5,0,0,1,1.121,1.022,2.774,2.774,0,0,1,.447,1.575,3.611,3.611,0,0,1-.326,1.54,3.107,3.107,0,0,1-.936,1.227A5.222,5.222,0,0,1,233.946,399.66Z" transform="translate(-94.403 -258.72)" fill="#144479"/>
    <path id="Path_487" data-name="Path 487" d="M97.23,268.489h10.181l-5.243-22.149Zm9.06-.887H98.33L102.2,250.27Z" transform="translate(-56.138 -218.203)" fill="#144479"/>
    <path id="Path_488" data-name="Path 488" d="M181.18,259.99c-1.078-1.454-2.391-2.731-3.7-4.2l-14.6,14.679-7.095-7.095c2-3.143,2-5.754,0-7.861a5.463,5.463,0,0,0-3.342-1.66,5.874,5.874,0,0,0-4.768,1.667l-1.724-1.937-19.6,20.759a3.909,3.909,0,0,1-1.206,1.277c-6.853,7.251-13.856,14.452-20.73,21.724H92.945l-.866-13.316,4.384-4.335-.277-.972a10.04,10.04,0,0,0-1.036,0q-.773-.085-1.554-.149c-1.121-.092-2.235-.156-3.356-.213-4.541-.234-9.145-.255-13.685-.057a1.171,1.171,0,0,0-.582.17,1.589,1.589,0,0,0-.575,1,.968.968,0,0,1-.057.227c-.2.631-.376,1.27-.546,1.908-.305,1.149-.6,2.4-.944,3.938-.206.958-.411,1.923-.61,2.88a88.2,88.2,0,0,1-2.263,9.223c-5.952.383-12.224.312-18.29.234-3.59-.043-7.286-.085-10.9-.035a8.073,8.073,0,0,0-1.242-.043c4.633-14.586,9.457-29.088,14.118-43.177,4.966-15.019,10.131-30.542,14.991-45.973a2.247,2.247,0,0,1,2.32-1.121c5.775,0,11.656.043,17.346.092,4.838.035,9.819.071,14.75.085V272.6L119.8,256.8a2.441,2.441,0,0,1,.248-.291l.575-.163-.078-.305.05-.043,13.99-14.054-1.852-1.419a3.82,3.82,0,0,1,.227-.39,5.732,5.732,0,0,0-.894-8.386,17.737,17.737,0,0,0-7.336-3.547,24.9,24.9,0,0,0-11.224.362,2.128,2.128,0,0,1-.532.078.468.468,0,0,1-.312-.085c-.553-.482-1.071-1.007-1.639-1.6l.085-.043c.936-.475,1.142-.66,1.022-1.49,1.121-.624,2.2-1.213,3.306-1.745,7.095-3.391,14.5-4.831,22.312-3.193a20.631,20.631,0,0,1,11.032,5.874c4.349,4.533,8.833,8.925,13.26,13.38.227.227.433.468.66.709l-.284.369c-.078.1-.163.192-.234.3a5.434,5.434,0,0,0-.369,6.052A4.76,4.76,0,0,0,167,249.83a9.776,9.776,0,0,0,2.724-.873,18.964,18.964,0,0,0,5.619-4.384c5.825-6.264,7.556-13.48,4.555-21.575-2.079-5.612-6.165-9.493-11.351-12.224A37.411,37.411,0,0,0,151,206.809c-14.65-.035-29.293,0-43.944,0H106.7c-5.775,0-11.656-.043-17.346-.092s-11.578-.085-17.353-.085a3.157,3.157,0,0,0-3.157,1.674c-4.874,15.487-10.025,31.01-15,46.022C49.1,268.6,44.205,283.366,39.509,298.173l-.2.6h2.618c3.547-.05,7.215,0,10.762.035,2.462.035,4.966.064,7.456.064,3.774,0,7.549-.071,11.2-.319h.291l.092-.284a87.893,87.893,0,0,0,2.391-9.627c.2-.958.4-1.916.6-2.873.333-1.525.631-2.767.936-3.9.163-.624.341-1.256.532-1.873a1.1,1.1,0,0,1,.071-.262c.128-.482.163-.5.348-.511,1.156-.05,2.32-.085,3.483-.106l10.2.17c1.1.057,2.206.128,3.306.206h.27c.766,0,1.107.128,1.213.341l-4,3.838s.922,13.707.915,13.707v.582h60.055a44.646,44.646,0,0,0,12.16-1.7,31.079,31.079,0,0,0,15.473-9.223C186.657,279.039,187.274,268.212,181.18,259.99ZM139.365,271.66h5.569v5.64h-5.569Zm5.6,12.9h-5.591v-5.676h5.591Zm1.561-12.614c0-.106.262-.312.4-.312h5.222v5.676h-5.633c0-1.816-.007-3.59.014-5.363Zm5.626,12.671h-5.264c-.128,0-.362-.27-.362-.426v-5.243H152.2Z" transform="translate(-39.31 -206.66)" fill="#144479"/>
  </g>
</svg>
