<svg xmlns="http://www.w3.org/2000/svg" width="130.927" height="126.337" viewBox="0 0 130.927 126.337">
  <g id="logo_w" data-name="logo w" transform="translate(0 -0.038)">
    <path id="Path_44" data-name="Path 44" d="M43.74,98.24" transform="translate(7.221 -33.51)" fill="#fff"/>
    <path id="Path_45" data-name="Path 45" d="M34.473,135.705H25.985a51.157,51.157,0,0,0-2.938-5.811,4.538,4.538,0,0,0-2.84-2.269v8.162H12.6V110.274h9.973a14.038,14.038,0,0,1,8.162,1.926,7.345,7.345,0,0,1,2.84,6.415q0,5.729-4.407,7.525Q30.507,127.315,34.473,135.705Zm-9.794-19.588a6.154,6.154,0,0,0-2.563-.392H20.239v5.909h2.253a5.125,5.125,0,0,0,2.481-.441,3.265,3.265,0,0,0-.31-5.076Z" transform="translate(-12.469 -25.923)" fill="#fff"/>
    <path id="Path_46" data-name="Path 46" d="M35.419,116.365v3.477H45.948V126H35.419v3.509H47.857v6.138H27.78V110.26H47.857v6.1Z" transform="translate(-2.871 -25.909)" fill="#fff"/>
    <path id="Path_47" data-name="Path 47" d="M52.223,110.274a14.038,14.038,0,0,1,8.162,1.926,7.345,7.345,0,0,1,2.84,6.415q0,5.534-3.983,7.737a19.588,19.588,0,0,1-9.337,1.747v7.607H42.25V110.274Zm-2.334,12a13.81,13.81,0,0,0,4.57-.457c.8-.375,1.208-1.371,1.208-2.971a2.824,2.824,0,0,0-1.355-2.775,6.252,6.252,0,0,0-2.579-.392H49.889Z" transform="translate(6.279 -25.923)" fill="#fff"/>
    <path id="Path_48" data-name="Path 48" d="M69.442,130.158H63.859l-1.306,5.534H53.38l8.7-25.431h8.863L80,135.691H70.829ZM66.569,118.52l-1.273,5.5h2.628Z" transform="translate(13.316 -25.909)" fill="#fff"/>
    <path id="Path_49" data-name="Path 49" d="M78.539,135.691H70.9V110.26h7.639Z" transform="translate(24.395 -25.909)" fill="#fff"/>
    <path id="Path_50" data-name="Path 50" d="M100.175,135.705H91.687a49.279,49.279,0,0,0-2.808-5.811,4.62,4.62,0,0,0-2.84-2.269v8.162H78.4V110.274h9.973a14.038,14.038,0,0,1,8.162,1.926,7.345,7.345,0,0,1,2.84,6.415q0,5.729-4.424,7.525Q96.307,127.315,100.175,135.705Zm-9.712-19.588a6.187,6.187,0,0,0-2.579-.392H86.039v5.909h2.236a5.24,5.24,0,0,0,2.5-.441,2.6,2.6,0,0,0,1.045-2.432,2.628,2.628,0,0,0-1.355-2.693Z" transform="translate(29.137 -25.923)" fill="#fff"/>
    <path id="Path_51" data-name="Path 51" d="M20.6,140.844h-.784v-6.529a2.35,2.35,0,0,1-1.175.326H14.59a1.388,1.388,0,0,0-1.028.375.751.751,0,0,0-.229.277v5.55H12.55V128.389h.735v5.827a2.3,2.3,0,0,1,1.257-.343h3.967a1.632,1.632,0,0,0,1.061-.343,1.533,1.533,0,0,0,.2-.294v-4.9h.784Z" transform="translate(-12.501 -14.477)" fill="#fff"/>
    <path id="Path_52" data-name="Path 52" d="M24.446,140.825a4.179,4.179,0,0,1-2.008-.522,5.157,5.157,0,0,1-1.632-1.338,7.362,7.362,0,0,1,0-8.733,4.9,4.9,0,0,1,1.632-1.339,4.178,4.178,0,0,1,2.008-.522,4.129,4.129,0,0,1,1.991.522,4.783,4.783,0,0,1,1.632,1.339,7.3,7.3,0,0,1,0,8.733,4.9,4.9,0,0,1-1.632,1.338A4.13,4.13,0,0,1,24.446,140.825Zm2.122-10.92a3.493,3.493,0,0,0-2.122-.735,3.412,3.412,0,0,0-2.122.735,4.9,4.9,0,0,0-1.551,1.975,6.529,6.529,0,0,0,0,5.436,4.9,4.9,0,0,0,1.551,1.975,3.412,3.412,0,0,0,2.122.735,3.493,3.493,0,0,0,2.122-.735,4.9,4.9,0,0,0,1.551-1.975,6.529,6.529,0,0,0,0-5.436,4.9,4.9,0,0,0-1.551-2.057Z" transform="translate(-8.188 -14.458)" fill="#fff"/>
    <path id="Path_53" data-name="Path 53" d="M36.465,128.32h.816v12.536h-.816V130.638l-3.673,10.218H31.96l-3.656-10.3v10.3H27.52V128.4H28.3l4.113,11.279Z" transform="translate(-3.035 -14.49)" fill="#fff"/>
    <path id="Path_54" data-name="Path 54" d="M42.89,140.825H35.43V128.37h7.46v.8H36.214v4.8a2.107,2.107,0,0,1,.653-.114H42.89v.8H36.866a.669.669,0,0,0-.522.163.457.457,0,0,0-.131.326v4.9H42.89Z" transform="translate(1.966 -14.458)" fill="#fff"/>
    <path id="Path_55" data-name="Path 55" d="M47.1,140.824a7.052,7.052,0,0,1-2.742-.457,3.607,3.607,0,0,1-1.5-1.208l-.261-.294.637-.473.245.326a4.607,4.607,0,0,0,.49.49,2.677,2.677,0,0,0,.637.424,4.065,4.065,0,0,0,1.028.31,9.614,9.614,0,0,0,1.469.1,4.1,4.1,0,0,0,2.579-.735,2.416,2.416,0,0,0,.93-1.991,1.73,1.73,0,0,0-.163-.784,1.942,1.942,0,0,0-.424-.588,2.71,2.71,0,0,0-.767-.457,8.773,8.773,0,0,0-.963-.359l-1.224-.326a11.329,11.329,0,0,1-2.791-.947,3.134,3.134,0,0,1-1.028-.914,2.693,2.693,0,0,1-.392-1.453,2.742,2.742,0,0,1,1-2.22,5.109,5.109,0,0,1,3.265-.881,4.228,4.228,0,0,1,1.893.424,4.358,4.358,0,0,1,1.5,1.224l.261.31-.62.473-.277-.31a3.265,3.265,0,0,0-1.224-1.012,3.624,3.624,0,0,0-1.534-.343,4.26,4.26,0,0,0-2.726.7,1.991,1.991,0,0,0-.7,1.632,1.942,1.942,0,0,0,.163.832,1.632,1.632,0,0,0,.424.588,3.264,3.264,0,0,0,.784.473,5.829,5.829,0,0,0,.979.343l1.224.343a10.625,10.625,0,0,1,2.775.93,3.085,3.085,0,0,1,1.012.914,2.481,2.481,0,0,1,.392,1.4,3.264,3.264,0,0,1-.294,1.387,2.726,2.726,0,0,1-.832,1.094,4.652,4.652,0,0,1-3.216,1.028Z" transform="translate(6.494 -14.457)" fill="#fff"/>
    <path id="Path_56" data-name="Path 56" d="M56.641,140.818H49.23V128.38h7.411v.783H50.014v4.8a2.106,2.106,0,0,1,.653-.114h5.974v.8H50.666a.669.669,0,0,0-.522.163.457.457,0,0,0-.131.326v4.9h6.627Z" transform="translate(10.692 -14.452)" fill="#fff"/>
    <path id="Path_57" data-name="Path 57" d="M64.123,140.819h-.881l-2.432-5.5a1.631,1.631,0,0,0-.229-.326,1.5,1.5,0,0,0-.229-.18l-.18-.1H57.006a.735.735,0,0,0-.539.18.588.588,0,0,0-.114.294v5.632H55.57V128.381H60.7a3.036,3.036,0,0,1,1.632.408,3.068,3.068,0,0,1,1.143,1.143,3.265,3.265,0,0,1,.424,1.632,3,3,0,0,1-.735,1.991,3.052,3.052,0,0,1-1.812,1.061,2.906,2.906,0,0,1,.278.441Zm-7.77-6.856a2.2,2.2,0,0,1,.588-.114H60.7a2.187,2.187,0,0,0,1.632-.686,2.318,2.318,0,0,0,0-3.265,2.154,2.154,0,0,0-1.632-.7H56.354Z" transform="translate(14.701 -14.453)" fill="#fff"/>
    <path id="Path_58" data-name="Path 58" d="M66.952,140.818,62.61,128.38h.849l3.918,11.23,3.9-11.23h.849L67.8,140.818Z" transform="translate(19.153 -14.452)" fill="#fff"/>
    <path id="Path_59" data-name="Path 59" d="M70.24,140.818V128.38h.8v12.438Z" transform="translate(23.977 -14.452)" fill="#fff"/>
    <path id="Path_60" data-name="Path 60" d="M77.58,140.818a4.178,4.178,0,0,1-1.991-.522,4.9,4.9,0,0,1-1.632-1.339,7.362,7.362,0,0,1,0-8.733,4.668,4.668,0,0,1,1.632-1.338,4.146,4.146,0,0,1,1.991-.506,4.293,4.293,0,0,1,2.318.669,5.778,5.778,0,0,1,1.632,1.779l.212.343-.686.424-.212-.343a4.783,4.783,0,0,0-1.485-1.534,3.264,3.264,0,0,0-1.861-.555,3.46,3.46,0,0,0-2.122.735,4.9,4.9,0,0,0-1.632,1.975,6.758,6.758,0,0,0,0,5.436,5,5,0,0,0,1.632,1.975,3.461,3.461,0,0,0,3.983.2,4.9,4.9,0,0,0,1.485-1.632l.212-.326.686.424-.212.343a5.778,5.778,0,0,1-1.632,1.779A4.309,4.309,0,0,1,77.58,140.818Z" transform="translate(25.42 -14.452)" fill="#fff"/>
    <path id="Path_61" data-name="Path 61" d="M87.443,140.818H80V128.38h7.411v.783H80.881v4.8a2.009,2.009,0,0,1,.637-.114h5.974v.8H81.469a.685.685,0,0,0-.522.163.441.441,0,0,0-.114.326v4.9h6.529Z" transform="translate(30.149 -14.452)" fill="#fff"/>
    <path id="Path_62" data-name="Path 62" d="M90.849,140.824a7.165,7.165,0,0,1-2.742-.457,3.705,3.705,0,0,1-1.5-1.208l-.245-.294.637-.473.245.326a4.583,4.583,0,0,0,.473.49,3.575,3.575,0,0,0,.637.424,4.539,4.539,0,0,0,1.028.31,9.789,9.789,0,0,0,1.469.1,4.081,4.081,0,0,0,2.579-.735,2.416,2.416,0,0,0,.947-1.991,1.975,1.975,0,0,0-.163-.784,2.253,2.253,0,0,0-.424-.588,2.97,2.97,0,0,0-.767-.457,8.769,8.769,0,0,0-.963-.359l-1.241-.326a11.867,11.867,0,0,1-2.791-.947,2.738,2.738,0,0,1-.408-4.587,5.093,5.093,0,0,1,3.265-.881,4.178,4.178,0,0,1,1.894.424,4.276,4.276,0,0,1,1.518,1.224l.245.31-.62.473-.261-.31a3.265,3.265,0,0,0-1.224-1.012,3.64,3.64,0,0,0-1.632-.343,4.211,4.211,0,0,0-2.71.7,2.008,2.008,0,0,0-.718,1.632,2.22,2.22,0,0,0,.163.832,1.992,1.992,0,0,0,.441.588,3.493,3.493,0,0,0,.767.473,7.049,7.049,0,0,0,.979.343l1.241.343a10.854,10.854,0,0,1,2.775.93,3.02,3.02,0,0,1,1,.914,2.367,2.367,0,0,1,.408,1.4,3.265,3.265,0,0,1-.294,1.387,3.052,3.052,0,0,1-.832,1.094A4.7,4.7,0,0,1,90.849,140.824Z" transform="translate(34.17 -14.457)" fill="#fff"/>
    <path id="Path_63" data-name="Path 63" d="M35.08,93.882h9.108L39.5,74Zm8.162-.8H36.059L39.52,77.558Z" transform="translate(1.745 -48.837)" fill="#fff"/>
    <path id="Path_64" data-name="Path 64" d="M139.645,106.34c-.963-1.306-2.138-2.448-3.265-3.771-4.522,4.505-8.815,8.912-13.14,13.156l-6.317-6.35c1.8-2.824,1.8-5.158,0-7.052a4.9,4.9,0,0,0-2.987-1.485,5.256,5.256,0,0,0-4.326,1.5l-1.632-1.747Q99.294,109.85,90.5,119.2a3.265,3.265,0,0,1-1.077,1.143c-6.138,6.529-12.406,12.944-18.576,19.474h-10.2l-.767-11.932L63.791,124l-.245-.881h-.93l-1.453-.212c-1-.082-2.008-.147-3-.2a113.738,113.738,0,0,0-12.259,0,.947.947,0,0,0-.522.163,1.4,1.4,0,0,0-.522.881v.212c-.18.571-.343,1.126-.49,1.632-.277,1.045-.539,2.155-.849,3.542l-.539,2.579A77.471,77.471,0,0,1,40.939,140c-5.321.343-10.953.277-16.323.212-3.265,0-6.529-.082-9.794,0a10.7,10.7,0,0,0-1.11,0c4.146-13.059,8.472-26.117,12.65-38.686,4.473-13.467,9.076-27.374,13.434-41.2a2.008,2.008,0,0,1,2.073-1H70.63v58.306l14.005-14.152.229-.261.522-.147v-.261h0l12.5-12.553-1.632-1.273c.147-.229.163-.294.212-.343a5.125,5.125,0,0,0-.816-7.509,15.85,15.85,0,0,0-6.529-3.167A22.493,22.493,0,0,0,79.07,78.3a2.4,2.4,0,0,1-.473,0,.49.49,0,0,1-.294,0c-.49-.441-.947-.9-1.469-1.436h0c.832-.424,1.028-.588.914-1.339,1.012-.555,1.975-1.077,2.971-1.632a30.7,30.7,0,0,1,19.98-2.857,18.38,18.38,0,0,1,9.892,5.272c3.9,4.048,7.917,8,11.883,11.981.2.2.392.424.588.637l-.245.326-.212.277a4.9,4.9,0,0,0-.343,5.419,4.26,4.26,0,0,0,4.668,2.367,8.16,8.16,0,0,0,2.432-.784,16.8,16.8,0,0,0,5.028-3.918c5.24-5.615,6.79-12.144,4.113-19.376a20.339,20.339,0,0,0-10.2-10.969,33.658,33.658,0,0,0-15.719-3.542h-39.7c-5.174,0-10.447,0-15.54-.082s-10.382,0-15.556,0a2.84,2.84,0,0,0-2.808,1.5C34.605,74.02,30,87.9,25.53,101.378c-4.244,12.8-8.619,26.019-12.83,39.29l-.18.539H31.03c3.379,0,6.758,0,10.039-.277h.261v-.261a77.239,77.239,0,0,0,2.138-8.619l.849-2.612c.31-1.355.571-2.465.849-3.493.147-.555.294-1.126.473-1.632v-.229c.114-.441.147-.457.31-.457,1.028,0,2.073,0,3.118-.1l9.141.147c1,0,1.975.114,2.971.2h.229c.686,0,1,.114,1.094.294l-3.591,3.444.816,12.291v.506h53.866a39.7,39.7,0,0,0,10.9-1.518,27.847,27.847,0,0,0,13.858-8.26A18.919,18.919,0,0,0,139.645,106.34ZM102.1,116.8h5.06v5.044h-4.995Zm5.028,11.557h-4.946V123.3h5.011Zm1.387-11.312a.571.571,0,0,1,.359-.277h4.685v5.109h-4.979c0-1.649-.016-3.232,0-4.832Zm5.044,11.426h-4.717c-.114,0-.326-.245-.326-.392v-4.7h5.06Z" transform="translate(-12.52 -58.57)" fill="#fff"/>
  </g>
</svg>
