<svg xmlns="http://www.w3.org/2000/svg" width="22" height="22" viewBox="0 0 15.273 19.566">
    <path id="checklist_1_" data-name="checklist (1)"
        d="M5.9.8v.8a.4.4,0,0,1-.363.4.455.455,0,0,1-.142.022H3.917v1.65h7.434V2.019H9.872A.447.447,0,0,1,9.731,2a.4.4,0,0,1-.361-.4V.8ZM2.93,7.842a.359.359,0,0,1,.6-.4l.2.29L4.5,6.79a.359.359,0,0,1,.554.455L3.981,8.551a.318.318,0,0,1-.086.08.357.357,0,0,1-.5-.1Zm0,3.707a.359.359,0,1,1,.6-.4l.2.29.775-.944a.359.359,0,1,1,.554.455l-1.07,1.314a.3.3,0,0,1-.086.081.357.357,0,0,1-.5-.1Zm0,3.853a.359.359,0,1,1,.6-.4l.2.291L4.5,14.35a.36.36,0,1,1,.554.459l-1.07,1.3a.319.319,0,0,1-.086.08.357.357,0,0,1-.5-.1L2.93,15.4Zm.8-10.918A.613.613,0,0,1,3.3,4.307c-.014-.014-.022-.029-.037-.043a.627.627,0,0,1-.142-.384V3.07H.892A.078.078,0,0,0,.828,3.1.107.107,0,0,0,.8,3.162V18.671a.067.067,0,0,0,.029.064.089.089,0,0,0,.064.029h13.49a.089.089,0,0,0,.064-.029.07.07,0,0,0,.029-.064V3.162a.107.107,0,0,0-.029-.064.08.08,0,0,0-.064-.029H12.152v.81a.619.619,0,0,1-.143.384c-.013.014-.021.029-.035.043a.613.613,0,0,1-.427.177ZM.895,19.566A.9.9,0,0,1,0,18.671V3.162a.9.9,0,0,1,.895-.895H3.124V1.826a.6.6,0,0,1,.6-.6H5.1V.669A.659.659,0,0,1,5.3.2.658.658,0,0,1,5.772,0H9.5a.661.661,0,0,1,.468.2.659.659,0,0,1,.2.478v.546h1.379a.6.6,0,0,1,.6.6v.441h2.229a.9.9,0,0,1,.9.895V18.671a.9.9,0,0,1-.9.895ZM12.16,15.859a.406.406,0,0,0,0-.81H6.777a.406.406,0,0,0,0,.81H12.16Zm0-7.77a.406.406,0,0,0,0-.81H6.777a.406.406,0,0,0,0,.81Zm0,3.833a.406.406,0,0,0,0-.81H6.777a.406.406,0,0,0,0,.81Z"
        fill="#15a5f3" />
</svg>
