<svg xmlns="http://www.w3.org/2000/svg" width="21" height="21" viewBox="0 0 13.509 20.43">
  <path id="payment" d="M0,8.172,8.244,0l5.265,5.174-.849.4L9,1.981,8.96,1.936a.841.841,0,0,0-1.188.027l-.3.309-.01-.01-1.4,1.479L.721,8.879Zm2.229,4.6-.05.319c-.131.851-.344,2.234-.43,2.722a.362.362,0,0,1-.028.085.214.214,0,0,1-.043.07,3.271,3.271,0,0,0-.268.4,1.105,1.105,0,0,0-.126.314.371.371,0,0,0,0,.166.288.288,0,0,0,.08.131c.811.814,1.672,1.637,2.46,2.468a1.087,1.087,0,0,0,.888.279,5.277,5.277,0,0,0,.881-.191,7.28,7.28,0,0,0,.921-.268,2.634,2.634,0,0,0,.814-.5L8,18.06a.228.228,0,0,1,.032-.037h0c.02-.02.078-.078.166-.156h0c.449-.439,1-.979.686-1.428l-.228-.228-.166.15-.218.181c-.116.1-.224.2-.322.294a.353.353,0,1,1-.5-.5c.1-.1.231-.218.362-.332l.017-.013c.44-.391.944-.831.7-1.2l-.268-.268c-.063.065-.13.126-.2.188s-.166.153-.253.226l-.022.017c-.113.1-.219.193-.317.291a.353.353,0,1,1-.5-.5c.1-.1.226-.213.357-.332l.02-.018c.44-.389.944-.831.7-1.2-.093-.091-.188-.183-.278-.278l-.745.745a.353.353,0,0,1-.5-.5l1.5-1.5a1.248,1.248,0,0,0,.314-.479.725.725,0,0,0,.013-.465A.632.632,0,0,0,8.3,10.6a.613.613,0,0,0-.086-.11A.578.578,0,0,0,8.1,10.4a.665.665,0,0,0-.13-.06.721.721,0,0,0-.464.017,1.353,1.353,0,0,0-.489.332L3.422,14.3a.353.353,0,1,1-.5-.5l.156-.155-.858-.876Zm1.687.047,2.137-2.137-.04-.012A1.526,1.526,0,1,1,7.956,9.64a1.375,1.375,0,0,1,.234.055h0a1.33,1.33,0,0,1,.274.126,1.346,1.346,0,0,1,.241.189h0a1.28,1.28,0,0,1,.09.1l2.028-2.064a1,1,0,0,1,.017-1.4L8.985,4.75a1,1,0,0,1-1.4-.015h0L2.493,9.956a1,1,0,0,1,0,1.4l1.431,1.463Zm5.116-1.426h0a1.945,1.945,0,0,1-.5.806l-.244.243.289.289.027.03.023.032a1.024,1.024,0,0,1,.086,1.187h.008a.484.484,0,0,1,.055.043l.283.284a.155.155,0,0,1,.027.03l.022.028a1.077,1.077,0,0,1,.236.7,1.163,1.163,0,0,1-.2.587l.281.279.027.032.02.028c.688.941-.113,1.724-.76,2.355-.043.052-.115.115-.166.166-.226.236-.5.555-.731.765a4.146,4.146,0,0,1-2.036.929,5.43,5.43,0,0,1-1.017.211,1.763,1.763,0,0,1-1.416-.482L.886,17.481a.964.964,0,0,1-.264-.424,1.079,1.079,0,0,1-.013-.512h0a1.73,1.73,0,0,1,.166-.455,3.311,3.311,0,0,1,.309-.484c.063-.361.2-1.28.332-2.124.075-.507.148-.984.2-1.33L.238,10.742,8.41,2.493h0L13.1,7.288l-4.07,4.105Z" fill="#15a5f3" fill-rule="evenodd"/>
</svg>
