<svg xmlns="http://www.w3.org/2000/svg" width="21.78" height="23" viewBox="0 0 21.78 23">
  <g id="object" transform="translate(0 -0.05)">
    <path id="Path_522" data-name="Path 522" d="M188.45,167.922a1.522,1.522,0,0,0,.719-1.354V164.81h.24a.2.2,0,0,0,.2-.2v-.94a.2.2,0,0,0-.2-.2H181.67a.2.2,0,0,0-.2.2v.942a.2.2,0,0,0,.2.2h.24V166.6a1.226,1.226,0,0,0,.711,1.319l1.976,1.2v.514c-.5.3-1.8,1.083-1.968,1.2a1.523,1.523,0,0,0-.719,1.355V173.7h-.24a.2.2,0,0,0-.2.2v.942a.2.2,0,0,0,.2.2h7.74a.2.2,0,0,0,.2-.2V173.9a.2.2,0,0,0-.2-.2h-.24v-1.544a1.226,1.226,0,0,0-.711-1.319l-1.976-1.2v-.514C186.98,168.824,188.279,168.04,188.45,167.922Zm-2.515,2.224,2.148,1.309a.928.928,0,0,1,.294.221,1.024,1.024,0,0,1,.073.484V173.7h-5.821v-1.513a.815.815,0,0,1,.411-.765c.136-.095,1.331-.817,2.1-1.279a.36.36,0,0,0,.175-.308v-.919a.361.361,0,0,0-.173-.307l-2.142-1.3-.006,0a.921.921,0,0,1-.294-.221,1.031,1.031,0,0,1-.073-.484v-1.789h5.821v1.757a.815.815,0,0,1-.411.764c-.136.095-1.331.817-2.1,1.279a.36.36,0,0,0-.175.308v.919A.359.359,0,0,0,185.935,170.146Z" transform="translate(-174.585 -156.971)" fill="#ff9e00"/>
    <path id="Path_523" data-name="Path 523" d="M218.157,229.766c.3-.145,2.055-1.175,2.055-1.175s.13-.113-.069-.081a12.5,12.5,0,0,1-2.221.611c-.985.075-1.444-.663-2.051-.518-.133.032-.134.089.023.181s1.561.873,1.754.981A.455.455,0,0,0,218.157,229.766Z" transform="translate(-206.945 -218.319)" fill="#ff9e00"/>
    <path id="Path_524" data-name="Path 524" d="M215.481,320.325c-.166.152-.245.262.135.262h3.8c.394,0,.242-.134.057-.31a2.862,2.862,0,0,0-1.939-.838A3.139,3.139,0,0,0,215.481,320.325Z" transform="translate(-206.537 -304.099)" fill="#ff9e00"/>
    <path id="Path_525" data-name="Path 525" d="M250.646,258a.126.126,0,1,0,.1.123A.113.113,0,0,0,250.646,258Z" transform="translate(-239.692 -246.138)" fill="#ff9e00"/>
    <path id="Path_526" data-name="Path 526" d="M250.694,266.771a.126.126,0,1,0,.1.124A.113.113,0,0,0,250.694,266.771Z" transform="translate(-239.739 -254.413)" fill="#ff9e00"/>
    <path id="Path_527" data-name="Path 527" d="M251.638,275.773a.126.126,0,1,0-.1-.123A.113.113,0,0,0,251.638,275.773Z" transform="translate(-240.683 -262.672)" fill="#ff9e00"/>
    <path id="Path_528" data-name="Path 528" d="M251.638,284.533a.126.126,0,1,0-.1-.123A.113.113,0,0,0,251.638,284.533Z" transform="translate(-240.683 -270.936)" fill="#ff9e00"/>
    <path id="Path_529" data-name="Path 529" d="M251.639,293.293a.126.126,0,1,0-.1-.122A.113.113,0,0,0,251.639,293.293Z" transform="translate(-240.684 -279.199)" fill="#ff9e00"/>
    <path id="Path_530" data-name="Path 530" d="M251.638,302.063a.126.126,0,1,0-.1-.123A.113.113,0,0,0,251.638,302.063Z" transform="translate(-240.683 -287.472)" fill="#ff9e00"/>
    <path id="Path_531" data-name="Path 531" d="M251.638,310.853a.126.126,0,1,0-.1-.123A.113.113,0,0,0,251.638,310.853Z" transform="translate(-240.683 -295.764)" fill="#ff9e00"/>
    <path id="Path_532" data-name="Path 532" d="M75.407,69.766c-.161.091-.327.179-.493.26a.716.716,0,0,1-.158.075,9.043,9.043,0,0,1-2.245.709l-.03,0c-.182.032-.368.057-.552.08h-.006a9.276,9.276,0,0,1-1.023.057,9.154,9.154,0,0,1-8.617-6.1c-.019-.057-.038-.108-.057-.163a9.142,9.142,0,0,1,0-5.76c.006-.02.013-.04.019-.057.018-.053.037-.105.057-.158l.027-.074a9.176,9.176,0,0,1,6.376-5.7h.006l.132-.032.014,0a9.121,9.121,0,0,1,2-.227l.008.939c0,.291.187.376.409.187l1.984-1.682a.427.427,0,0,0-.006-.68L71.237,49.8c-.227-.185-.408-.1-.406.194l.006.935A10.816,10.816,0,0,0,63.2,54.114q-.3.3-.577.624l0,0-.02.024a10.8,10.8,0,0,0-2.582,6.73c0,.02,0,.039,0,.057,0,.083,0,.17,0,.252,0,.137,0,.276.008.413,0,.016,0,.032,0,.048a10.794,10.794,0,0,0,2.255,6.2l.013.019c.134.174.277.346.422.51l.029.03c.147.166.3.329.458.488a10.809,10.809,0,0,0,5.862,3.035l.02,0H69.1a10.988,10.988,0,0,0,1.8.149,10.807,10.807,0,0,0,4.6-1.015.891.891,0,0,0,.089-.049.864.864,0,0,0,.1-.04c.2-.1.4-.2.588-.31a.876.876,0,1,0-.863-1.524Z" transform="translate(-60.01 -49.65)" fill="#ff9e00"/>
    <path id="Path_533" data-name="Path 533" d="M377.594,142.535a.876.876,0,1,0,1.453-.977c-.123-.183-.253-.365-.387-.54a.876.876,0,1,0-1.391,1.064C377.381,142.229,377.49,142.382,377.594,142.535Z" transform="translate(-359.114 -135.467)" fill="#ff9e00"/>
    <path id="Path_534" data-name="Path 534" d="M404.94,195.048c.057.176.108.356.154.536a.876.876,0,0,0,.85.66.866.866,0,0,0,.217-.028.876.876,0,0,0,.633-1.065c-.057-.214-.116-.428-.184-.637a.875.875,0,1,0-1.667.534Z" transform="translate(-385.348 -185.68)" fill="#ff9e00"/>
    <path id="Path_535" data-name="Path 535" d="M364.811,363.855a.876.876,0,0,0-1.234.092c-.121.14-.248.278-.377.41a.876.876,0,1,0,1.252,1.224c.154-.157.3-.322.45-.489a.875.875,0,0,0-.091-1.238Z" transform="translate(-345.777 -345.796)" fill="#ff9e00"/>
    <path id="Path_536" data-name="Path 536" d="M413.565,253.353a.875.875,0,0,0-.9.85c-.006.185-.017.372-.034.557a.876.876,0,0,0,.794.952.773.773,0,0,0,.081,0,.875.875,0,0,0,.871-.794c.02-.219.034-.443.041-.664a.876.876,0,0,0-.851-.9Z" transform="translate(-392.637 -241.758)" fill="#ff9e00"/>
    <path id="Path_537" data-name="Path 537" d="M398.709,312.259a.876.876,0,0,0-1.134.5c-.067.17-.141.345-.219.513a.876.876,0,0,0,1.587.737c.093-.2.18-.406.261-.611A.876.876,0,0,0,398.709,312.259Z" transform="translate(-378.17 -297.268)" fill="#ff9e00"/>
    <path id="Path_538" data-name="Path 538" d="M335.067,101.625a.875.875,0,0,0-.183-1.224c-.177-.132-.361-.259-.545-.379a.876.876,0,1,0-.957,1.468c.155.1.309.208.458.318a.875.875,0,0,0,1.225-.183Z" transform="translate(-317.51 -96.986)" fill="#ff9e00"/>
  </g>
</svg>
